<?xml version="1.0" encoding="UTF-8"?>
<svg xmlns="http://www.w3.org/2000/svg" width="272px" height="179px" viewBox="0 0 195 128">
    <g fill="none" fill-rule="evenodd">
        <path fill="#DDD" d="M192.262 112.961H2.232C1 112.961 0 113.868 0 114.987v.064c0 2.325.47 4.592 1.359 6.557 1.728 3.818 4.818 6.097 8.267 6.097h175.24c3.448 0 6.54-2.279 8.27-6.096.89-1.966 1.36-4.233 1.36-6.558 0-.035 0-.072-.003-.11-.026-1.097-1.015-1.98-2.231-1.98z"/>
        <path fill="#F5F5F5" d="M193.468 114.528l-.003-.07H1.03v.07c0 2.342.444 4.522 1.207 6.35H192.26c.764-1.828 1.208-4.008 1.208-6.35"/>
        <path fill="#9B9B9B" d="M2.237 120.877c1.335 3.197 3.65 5.311 6.281 5.311h177.458c2.631 0 4.947-2.114 6.284-5.31H2.237"/>
        <path fill="#FFF" d="M69.136 120.323c0 1.511 1.246 2.734 2.784 2.734h50.656c1.54 0 2.786-1.223 2.786-2.734s-1.246-2.737-2.786-2.737H71.92c-1.538 0-2.784 1.226-2.784 2.737"/>
        <g fill="#000">
            <path fill-opacity=".87" d="M179.703 7.773V104.4l6.355 3.726c1.563-2.032 2.507-4.662 2.507-7.536V11.676c0-6.433-4.72-11.645-10.545-11.645H16.297c-3.147 0-5.971 1.522-7.903 3.935l6.493 3.807h164.816"/>
            <path fill-opacity=".7" d="M179.703 104.4v.093H14.613V7.773h.274L8.394 3.966C6.749 6.019 5.75 8.718 5.75 11.676v88.915c0 6.428 4.72 11.643 10.546 11.643H178.02c3.22 0 6.103-1.595 8.038-4.107l-6.355-3.726"/>
        </g>
        <g>
            <path fill="#FFF" d="M14.302 104.402h165.184V7.866H14.302z"/>
            <path fill="#B00020" fill-rule="nonzero" d="M96.909 37.462c-13.158 0-23.837 10.679-23.837 23.836 0 13.158 10.679 23.836 23.837 23.836 13.157 0 23.836-10.678 23.836-23.836 0-13.157-10.679-23.836-23.836-23.836zm-19.07 23.836c0-10.535 8.534-19.069 19.07-19.069 4.41 0 8.461 1.502 11.68 4.029l-26.721 26.72a18.836 18.836 0 0 1-4.028-11.68zm19.07 19.07c-4.41 0-8.462-1.503-11.68-4.03l26.72-26.72a18.836 18.836 0 0 1 4.028 11.68c0 10.536-8.533 19.07-19.068 19.07z"/>
            <path fill="#D8D8D8" d="M14.302 7.866h165.184v12.872H14.302z"/>
            <path fill="#FFF" d="M30.034 11.441h144.819v5.721H30.033z"/>
            <path fill="#B7B5B1" d="M94.763 4.086c0 1.183.96 2.142 2.147 2.142a2.143 2.143 0 0 0 2.144-2.142c0-1.182-.96-2.14-2.144-2.14a2.143 2.143 0 0 0-2.147 2.14"/>
            <g fill-rule="nonzero">
                <path fill="#979797" d="M18.485 14.324l.793.87-.49.538-1.626-1.788 1.627-1.788.489.538-.793.87h2.968v.76h-2.968z"/>
                <path fill="#9B9B9B" fill-opacity=".5" d="M26.565 14.324l-.792.87.488.538 1.627-1.788-1.627-1.788-.488.538.792.87h-2.967v.76h2.967z"/>
            </g>
        </g>
    </g>
</svg>
